<!-- This Source Code Form is subject to the terms of the Mozilla Public
   - License, v. 2.0. If a copy of the MPL was not distributed with this
   - file, You can obtain one at http://mozilla.org/MPL/2.0/. -->
<svg xmlns="http://www.w3.org/2000/svg" xmlns:xlink="http://www.w3.org/1999/xlink" width="192" height="192" viewBox="0 0 192 192">
  <defs>
    <filter id="badge-shadow" x="-20%" y="-20%" width="140%" height="140%">
      <feDropShadow dx="0" dy="2" stdDeviation="2" flood-color="#16072d" flood-opacity=".55"/>
    </filter>
    <g id="mercury-logo">
      <path fill="#1ae3dc" d="M481.55 14.89C545.06 10.77 609.16 19.83 669.58 39.6c15.8 4.93 31.02 11.59 46.98 16.03 20.93 5.97 42.7 8.45 64.39 9.27 19.05.07 37.98-2.37 56.99-3.3 20.93-1.06 42.08-3.05 62.93.05 9.23 1.53 19.1 4.6 25.01 12.35 5.4 7.5 7.52 16.85 7.87 25.97 1.13 23.32.97 46.69 1.52 70.04.5 20.32.6 40.8 4.4 60.84 2.57 13.43 5.42 26.91 10.69 39.59 5.33 13.11 12.03 25.59 17.68 38.56 14.57 32.64 25.97 66.74 33.14 101.77 10.54 51.86 13.38 105.39 7.08 157.98-4.37 37.45-12.81 74.45-25.44 109.98-23.97 67.07-62.41 128.95-112.27 179.84-22.41 22.79-46.56 44.03-73.09 61.92-14.6 9.9-29.31 19.7-44.89 28.01-27.48 14.41-55.74 27.61-85.41 36.88-40.87 13.22-83.39 21.32-126.27 23.82-63.46 3.86-127.54-5-187.81-25.14-53.14-17.57-103.25-44.24-147.36-78.72-54.13-42.09-99.88-95.1-132.6-155.41-35.04-64.09-55.72-135.97-59.89-208.9-3.84-66.04 5.62-132.79 27.74-195.09 12.2-34.4 28.27-67.41 47.69-98.31 15.18-24.2 32.36-47.18 51.72-68.21 22.56-24.53 46.88-47.6 73.88-67.22 29.84-21.7 61.76-40.64 95.51-55.59 54.21-23.87 112.7-37.89 171.78-41.76zm20.73 144.37c-68.88 1.59-137.01 24.1-193.42 63.64-53.14 36.97-96.02 88.67-121.94 148.03-12.95 29.31-21.47 60.46-26.07 92.14-3.58 21.79-3.01 43.97-2.72 65.96.09 18.02 2.94 35.87 6.49 53.49 4.33 20.95 10.44 41.54 18.41 61.39 22.28 55.76 59.7 105.12 106.33 142.8 50.48 40.75 112.42 66.91 176.7 75.38 22.14 3.13 44.58 3.24 66.88 2.34 66.67-4.2 132.29-26.91 186.49-66.11 47.38-34.28 86.46-80.2 111.98-132.88 15.92-32.87 26.38-68.28 31.73-104.38 3.29-20.19 2.95-40.72 2.79-61.1-.06-14.01-1.11-28.01-3.55-41.81-6.01-37.35-17.57-73.88-34.97-107.5-28.22-54.44-70.91-101.29-122.36-134.63-59.79-38.85-131.52-58.8-202.77-56.76z"/>
      <path fill="#5743ff" d="M502.28 159.26c71.25-2.04 142.98 17.91 202.77 56.76 51.45 33.34 94.14 80.19 122.36 134.63 17.4 33.62 28.96 70.15 34.97 107.5 2.44 13.8 3.49 27.8 3.55 41.81.16 20.38.5 40.91-2.79 61.1-5.35 36.1-15.81 71.51-31.73 104.38-25.52 52.68-64.6 98.6-111.98 132.88-54.2 39.2-119.82 61.91-186.49 66.11-22.3.9-44.74.79-66.88-2.34-64.28-8.47-126.22-34.63-176.7-75.38-46.63-37.68-84.05-87.04-106.33-142.8-7.97-19.85-14.08-40.44-18.41-61.39-3.55-17.62-6.4-35.47-6.49-53.49-.29-21.99-.86-44.17 2.72-65.96 4.6-31.68 13.12-62.83 26.07-92.14 25.92-59.36 68.8-111.06 121.94-148.03 56.41-39.54 124.54-62.05 193.42-63.64z"/>
    </g>
  </defs>
  <g transform="translate(18 18) scale(2.5)">
    <circle cx="24" cy="24" r="24" fill="#7338e2"/>
    <path fill="#fff" d="M42.336 26.011c-1.801 0-2.72-1.305-3.063-3.078-.498-2.57-1.363-5-2.388-7.423-.527-1.246-1.492-4.109-3.086-4.436-1.813-.375-3.412.603-5.48 4.747-1.7 3.418-2.85 5.8-2.85 5.8v.024l-1.167-.012h-.586s-.03 0-.03.006l-1.167.012v-.024s-1.15-2.388-2.85-5.8c-2.061-4.15-3.666-5.122-5.48-4.748-1.593.328-2.559 3.196-3.086 4.437-1.025 2.424-1.89 4.847-2.387 7.422-.344 1.774-1.256 3.073-3.063 3.08-.462 0-.77.48-.61.906.385 1.03 1.57 1.686 2.559 2.067-.444.117-1.771-.152-1.83.515-.048.544 1.338 1.094 1.712 1.27 3.489 1.68 6.7 4.694 10.829 4.162 1.795-.234 3.104-1.499 4.574-2.283a2.38 2.38 0 0 1 2.227 0c1.47.784 2.778 2.049 4.573 2.283 4.13.532 7.34-2.482 10.83-4.162.373-.181 1.753-.726 1.712-1.27-.053-.662-1.38-.398-1.83-.515.989-.38 2.174-1.036 2.559-2.067a.674.674 0 0 0-.61-.907zm-29.248.884c-.053-.556 1.155-.983 1.593-1.053 2.607-.433 6.06.585 6.902 3.283-2.393 2.184-7.322.68-8.495-2.224zm13.312 2.23c.84-2.698 4.295-3.716 6.901-3.283.439.07 1.647.497 1.594 1.053-1.179 2.904-6.102 4.414-8.496 2.224z"/>
  </g>
  <use href="#mercury-logo" xlink:href="#mercury-logo" transform="translate(99 99) scale(.0751953125)" filter="url(#badge-shadow)"/>
</svg>
